<?xml version="1.0" encoding="utf-8"?>
<!-- Generator: Adobe Illustrator 16.0.4, SVG Export Plug-In . SVG Version: 6.00 Build 0)  -->
<!DOCTYPE svg PUBLIC "-//W3C//DTD SVG 1.1//EN" "http://www.w3.org/Graphics/SVG/1.1/DTD/svg11.dtd">
<svg version="1.1" id="Layer_1" xmlns="http://www.w3.org/2000/svg" xmlns:xlink="http://www.w3.org/1999/xlink" x="0px" y="0px"
	 width="425.2px" height="425.2px" viewBox="0 0 425.2 425.2" enable-background="new 0 0 425.2 425.2" xml:space="preserve">
<g>
	<g>
		<path fill="#0088C2" d="M149.55,205.076h6.037c3.336,0,6.039,2.701,6.039,6.037c0,3.334-2.703,6.037-6.039,6.037h-6.037V205.076z
			 M149.55,223.189h4.01l8.066,16.104h8.445l-8.464-16.787c4.7-1.654,8.069-6.129,8.069-11.393c0-6.67-5.406-12.076-12.076-12.076
			h-16.103v14.518v9.635v16.104h8.052V223.189z"/>
	</g>
	<rect x="173.704" y="199.035" fill="#0088C2" width="8.051" height="40.256"/>
	<rect x="274.348" y="199.035" fill="#0088C2" width="8.051" height="40.256"/>
	<polygon fill="#0088C2" points="295.187,215.137 307.264,239.293 315.315,239.293 315.315,199.037 307.264,199.037 
		307.264,223.189 295.187,199.037 287.135,199.037 287.135,199.037 287.135,239.293 295.187,239.293 	"/>
	<polygon fill="#0088C2" points="250.191,231.242 230.062,231.242 230.062,223.189 242.141,223.189 242.141,215.139 
		230.062,215.139 230.062,207.088 250.191,207.088 250.191,199.037 230.062,199.037 230.062,199.037 222.012,199.037 
		222.012,199.037 222.012,207.088 222.012,215.139 222.012,223.189 222.012,231.242 222.012,239.293 222.012,239.293 
		250.191,239.293 	"/>
	<rect x="254.219" y="219.164" fill="#0088C2" width="12.076" height="8.049"/>
	<polygon fill="#0088C2" points="197.864,239.293 205.903,239.293 205.915,239.293 217.979,199.037 209.927,199.037 
		201.882,225.883 193.837,199.037 185.787,199.037 197.851,239.293 	"/>
	<g>
		<path fill="#0088C2" d="M117.345,207.094c0.057-0.002,0.113-0.006,0.172-0.006c6.575,0,11.904,5.408,11.904,12.076
			c0,6.67-5.329,12.078-11.904,12.078c-0.059,0-0.115-0.004-0.172-0.004V207.094z M137.475,219.164
			c0-11.115-9.013-20.127-20.129-20.127h-8.054v40.256h8.054C128.462,239.293,137.475,230.281,137.475,219.164"/>
		<path fill="#0088C2" d="M324.77,249.646h-224.34l-12.098-60.492h248.537L324.77,249.646z M167.819,177.371
			c1.192-1.02,3.401-3.125,5.534-5.225c-0.139,0.318-0.28,0.633-0.414,0.951c-1.11,2.637-2.139,5.576-1.176,8.432
			c0.132,0.391,0.305,0.775,0.516,1.135h-10.951C163.579,181.016,165.708,179.178,167.819,177.371 M187.992,181.09
			c1.002-0.686,1.971-1.42,2.928-2.166c2.471-1.92,8.965-7.736,11.729-10.225c-0.031,0.064-0.062,0.131-0.094,0.195
			c-0.76,1.576-1.526,3.152-2.252,4.744c-0.752,1.648-1.506,3.514-1.563,5.34c-0.024,1.559,0.901,3.125,2.353,3.686h-15.601
			C186.349,182.174,187.183,181.643,187.992,181.09 M269.399,153.572c0.78-1.492,1.815-2.848,2.976-4.064
			c1.174-1.232,3.301-3.158,5.166-2.697c0.426,0.105,0.928,0.674,1.109,1.049c1.081,2.23-1.441,4.438-2.928,5.713
			c-0.625,0.537-1.274,1.047-1.92,1.559c-0.637,0.508-1.282,1.008-1.939,1.492c-1.395,1.027-2.878,1.93-4.438,2.686
			C267.76,157.311,268.463,155.354,269.399,153.572 M342.76,184.326c-0.865-1.057-2.144-1.662-3.51-1.662H204.852
			c2.206-0.619,4.239-2.133,6.012-3.424c0.697-0.508,1.343-1.094,1.995-1.656c1.124-0.971,2.237-1.955,3.35-2.939
			c1.311-1.158,2.612-2.324,3.916-3.492c1.241-1.109,2.482-2.221,3.715-3.342c1.154-1.047,3.647-3.543,4.746-4.686
			c-0.093,0.201-0.188,0.402-0.279,0.604c-0.703,1.566-1.42,3.123-2.088,4.705c-1.109,2.639-2.138,5.578-1.176,8.432
			c0.236,0.701,0.588,1.387,1.096,1.93c1.59,1.699,4.255,1.889,6.416,1.562c0.654-0.098,1.312-0.254,1.945-0.451
			c2.428-0.754,4.684-2.051,6.772-3.479c1.002-0.688,1.971-1.42,2.929-2.166c2.616-2.035,9.74-8.432,12.174-10.627
			c-0.262,2.824,0.016,5.744,1.357,8.23c1.115,2.066,2.854,4.154,5.09,5.016c4.329,1.664,9.607-0.803,13.191-3.156
			c2.93-1.924,5.608-4.266,8.268-6.543c2.736-2.338,9.26-9.166,9.49-9.762l2.672-7.908c-2.84,3.404-9.109,10.508-11.639,12.588
			c-2.976,2.441-6.457,5.488-10.252,6.52c-1.014,0.275-2.205,0.375-3.248,0.191c-1.6-0.279-2.934-1.363-3.541-2.859
			c-0.15-0.371-0.26-0.75-0.348-1.133c0.533-0.309,1.045-0.623,1.526-0.939c1.56-1.023,3.042-2.162,4.485-3.344
			c2.494-2.041,4.955-4.131,7.31-6.334c0.669-0.625,1.328-1.26,1.976-1.908c1.146-1.15,2.278-2.375,2.943-3.877
			c0.516-1.166,0.77-2.691,0.527-3.961c-0.787-4.111-5.129-4.861-8.66-4.277c-6.369,1.057-11.77,5.154-15.653,10.16
			c-1.349,1.738-2.534,3.635-3.454,5.646c-0.371,0.301-0.742,0.602-1.113,0.904c-3.129,2.557-6.232,5.145-9.64,7.33
			c-1.329,0.854-2.702,1.645-4.129,2.324c-0.62,0.295-1.243,0.58-1.868,0.863c-0.531,0.236-1.677,0.77-2.187,0.186
			c-0.597-0.678,0.403-2.449,0.681-3.113c0.557-1.328,3.383-7.857,4.051-9.865c0.879-2.637,2.24-7.088-1-8.779
			c-1.718-0.896-3.55-0.146-5.004,0.838c-1.619,1.098-3.113,2.371-4.563,3.68c-0.853,0.771-1.699,1.549-2.538,2.334
			c-0.76,0.713-1.553,1.408-2.273,2.162c-0.689,0.662-1.377,1.33-2.057,2.002c-1.825,1.807-3.65,3.613-5.444,5.451
			c-1.423,1.457-2.854,2.906-4.26,4.381c-0.651,0.682-1.323,1.348-1.954,2.043c-0.016,0.018-0.031,0.035-0.045,0.053
			c0,0,4.354-10.277,4.723-11.285c0.502-1.377,1.002-2.793,1.225-4.244c0.183-1.209,0.269-2.646-0.348-3.752
			c-0.334-0.596-0.955-1.176-1.568-1.492c-1.678-0.861-3.592-0.178-5.024,0.84c-1.847,1.312-3.208,3.17-4.285,5.123
			c-0.896,1.619-1.729,3.27-2.537,4.936c-0.174,0.137-0.348,0.266-0.48,0.379c-0.902,0.773-1.833,1.518-2.755,2.27
			c-3.129,2.557-6.233,5.145-9.64,7.33c-1.33,0.854-2.701,1.646-4.129,2.324c-0.619,0.295-1.244,0.58-1.869,0.863
			c-0.53,0.236-1.676,0.77-2.187,0.186c-0.595-0.678,0.403-2.447,0.681-3.113c0.558-1.328,3.383-7.857,4.051-9.865
			c0.879-2.637,2.242-7.088-1-8.779c-1.678-0.877-3.588-0.188-5.016,0.844c-1.844,1.328-3.199,3.211-4.273,5.191
			c-0.984,1.812-1.84,3.689-2.699,5.564c-3.141,3.629-7.571,8.525-9.6,10.191c-2.975,2.443-6.457,5.488-10.25,6.521
			c-1.016,0.275-2.207,0.373-3.25,0.191c-1.599-0.281-2.933-1.365-3.541-2.859c-0.692-1.707-0.653-3.559-0.504-5.359
			c0.201-2.441,1.006-4.857,2.14-7.021c0.782-1.49,1.815-2.846,2.975-4.062c1.177-1.232,3.302-3.158,5.168-2.697
			c0.832,0.207,1.423,1.582,1.158,2.383c-0.319,0.971-1.452,1.812-0.892,2.953c0.789,1.607,2.529,1.023,3.771,0.357
			c0.128-0.07,0.25-0.139,0.366-0.207c1.588-0.938,2.95-2.164,3.711-3.883c0.517-1.164,0.769-2.689,0.526-3.959
			c-0.787-4.111-5.129-4.861-8.66-4.275c-6.369,1.055-11.77,5.152-15.652,10.158c-2.367,3.051-4.232,6.586-5.044,10.373
			c-0.78,3.639-0.909,7.793,0.905,11.154c0.109,0.203,0.23,0.406,0.352,0.609H85.95c-1.364,0-2.644,0.604-3.509,1.66
			c-0.865,1.055-1.208,2.428-0.939,3.766l12.879,64.4c0.422,2.113,2.295,3.646,4.449,3.646H326.37c2.155,0,4.027-1.533,4.45-3.646
			l12.879-64.4C343.967,186.752,343.625,185.379,342.76,184.326"/>
		<g>
			<path fill="#0088C2" d="M115.427,272.986v-1.391c0-0.764-0.15-1.314-0.448-1.654s-0.646-0.51-1.044-0.51
				c-0.631,0-1.062,0.162-1.293,0.484c-0.232,0.324-0.349,0.824-0.349,1.504v9.102c0,0.68,0.116,1.182,0.349,1.504
				c0.231,0.324,0.662,0.486,1.293,0.486c0.562,0,0.953-0.158,1.168-0.473c0.216-0.314,0.324-0.764,0.324-1.344v-2.162h3.083v2.062
				c0,0.631-0.096,1.227-0.286,1.791c-0.191,0.564-0.473,1.053-0.846,1.467s-0.85,0.742-1.43,0.982s-1.252,0.361-2.014,0.361
				c-0.812,0-1.514-0.121-2.102-0.361s-1.078-0.568-1.467-0.982c-0.391-0.414-0.68-0.902-0.871-1.467
				c-0.19-0.564-0.285-1.16-0.285-1.791v-9.25c0-0.629,0.095-1.227,0.285-1.789c0.191-0.564,0.48-1.053,0.871-1.469
				c0.389-0.414,0.879-0.74,1.467-0.98s1.289-0.361,2.102-0.361c0.762,0,1.434,0.133,2.014,0.398c0.58,0.264,1.057,0.621,1.43,1.068
				s0.654,0.971,0.846,1.566c0.19,0.598,0.286,1.227,0.286,1.891v1.316H115.427z"/>
			<path fill="#0088C2" d="M122.066,284.947v-17.953h3.084v17.953H122.066z"/>
			<path fill="#0088C2" d="M128.556,284.947v-17.953h2.859l3.755,10.27h0.05v-10.27h2.785v17.953h-2.686l-3.93-11.215h-0.049v11.215
				H128.556z"/>
			<path fill="#0088C2" d="M140.99,284.947v-17.953h8.255v2.686h-5.173v4.625h3.979v2.686h-3.979v5.271h5.521v2.686H140.99z"/>
			<path fill="#0088C2" d="M164.387,266.994v17.953h-2.686v-14.023h-0.05l-2.785,14.023h-1.492l-2.784-14.023h-0.05v14.023h-2.686
				v-17.953h4.053l2.188,10.494h0.05l2.188-10.494H164.387z"/>
			<path fill="#0088C2" d="M169.012,284.947h-2.983l3.307-17.953h3.83l3.307,17.953h-2.984l-0.547-3.979h-3.381L169.012,284.947z
				 M170.007,278.283h2.486l-1.219-7.707h-0.049L170.007,278.283z"/>
			<path fill="#0088C2" d="M183.782,284.947v-17.953h8.604v2.686h-5.521v4.625h4.128v2.686h-4.128v7.957H183.782z"/>
			<path fill="#0088C2" d="M194.822,271.346c0-0.629,0.096-1.227,0.286-1.789c0.19-0.564,0.48-1.053,0.87-1.469
				c0.39-0.414,0.879-0.74,1.467-0.98c0.589-0.24,1.289-0.361,2.102-0.361s1.513,0.121,2.102,0.361
				c0.588,0.24,1.077,0.566,1.467,0.98c0.389,0.416,0.68,0.904,0.871,1.469c0.189,0.562,0.285,1.16,0.285,1.789v9.25
				c0,0.631-0.096,1.227-0.285,1.791c-0.191,0.564-0.482,1.053-0.871,1.467c-0.39,0.414-0.879,0.742-1.467,0.982
				c-0.589,0.24-1.289,0.361-2.102,0.361s-1.513-0.121-2.102-0.361c-0.588-0.24-1.077-0.568-1.467-0.982s-0.68-0.902-0.87-1.467
				s-0.286-1.16-0.286-1.791V271.346z M197.906,280.521c0,0.68,0.115,1.182,0.348,1.504c0.232,0.324,0.663,0.486,1.293,0.486
				s1.061-0.162,1.293-0.486c0.232-0.322,0.348-0.824,0.348-1.504v-9.102c0-0.68-0.115-1.18-0.348-1.504
				c-0.232-0.322-0.663-0.484-1.293-0.484s-1.061,0.162-1.293,0.484c-0.232,0.324-0.348,0.824-0.348,1.504V280.521z"/>
			<path fill="#0088C2" d="M210.337,284.947h-3.082v-17.953h4.326c1.724,0,3.026,0.406,3.905,1.219
				c0.878,0.812,1.317,2.172,1.317,4.078c0,0.73-0.062,1.352-0.187,1.865s-0.29,0.949-0.498,1.305
				c-0.207,0.357-0.439,0.643-0.695,0.857c-0.258,0.217-0.519,0.383-0.783,0.498l2.611,8.131h-3.134l-2.189-7.434
				c-0.199,0.033-0.443,0.053-0.733,0.061c-0.29,0.01-0.576,0.014-0.858,0.014V284.947z M210.337,275.051h1.095
				c0.414,0,0.767-0.041,1.057-0.123c0.29-0.084,0.526-0.232,0.709-0.449c0.183-0.215,0.314-0.5,0.397-0.857
				c0.083-0.355,0.125-0.799,0.125-1.33c0-1.061-0.174-1.785-0.522-2.176c-0.349-0.389-0.937-0.584-1.766-0.584h-1.095V275.051z"/>
			<path fill="#0088C2" d="M221.479,284.947h-2.984l3.308-17.953h3.829l3.308,17.953h-2.983l-0.548-3.979h-3.382L221.479,284.947z
				 M222.473,278.283h2.487l-1.219-7.707h-0.05L222.473,278.283z"/>
			<path fill="#0088C2" d="M236.248,266.994h4.576c1.607,0,2.822,0.439,3.643,1.318s1.23,2.246,1.23,4.104v7.111
				c0,1.855-0.41,3.225-1.23,4.102c-0.82,0.879-2.035,1.318-3.643,1.318h-4.576V266.994z M239.332,282.412h1.068
				c0.829,0,1.405-0.184,1.729-0.547c0.323-0.365,0.484-1.02,0.484-1.965v-7.857c0-0.945-0.161-1.6-0.484-1.965
				s-0.899-0.547-1.729-0.547h-1.068V282.412z"/>
			<path fill="#0088C2" d="M248.682,284.947v-17.953h8.255v2.686h-5.173v4.625h3.979v2.686h-3.979v5.271h5.521v2.686H248.682z"/>
			<path fill="#0088C2" d="M270.861,271.42c-0.034-0.381-0.104-0.699-0.212-0.957c-0.108-0.256-0.241-0.459-0.397-0.609
				c-0.158-0.148-0.328-0.256-0.51-0.322c-0.184-0.066-0.357-0.1-0.522-0.1c-0.497,0-0.879,0.152-1.144,0.459
				c-0.266,0.309-0.398,0.742-0.398,1.307c0,0.514,0.153,0.986,0.46,1.418c0.307,0.43,0.692,0.861,1.156,1.293
				c0.464,0.43,0.97,0.865,1.517,1.305s1.053,0.924,1.518,1.455c0.463,0.529,0.85,1.115,1.156,1.752
				c0.307,0.639,0.459,1.365,0.459,2.176c0,0.746-0.119,1.406-0.359,1.977c-0.241,0.572-0.572,1.053-0.995,1.443
				c-0.423,0.389-0.937,0.684-1.542,0.883s-1.264,0.299-1.977,0.299s-1.352-0.133-1.914-0.398c-0.564-0.266-1.041-0.625-1.43-1.082
				c-0.391-0.455-0.693-0.982-0.908-1.578c-0.216-0.598-0.34-1.236-0.373-1.916l2.934-0.422c0.066,0.912,0.266,1.592,0.598,2.039
				c0.331,0.447,0.746,0.672,1.243,0.672c0.53,0,0.961-0.141,1.293-0.424c0.331-0.281,0.497-0.688,0.497-1.219
				c0-0.596-0.153-1.127-0.46-1.59c-0.308-0.465-0.692-0.912-1.156-1.344s-0.97-0.861-1.517-1.293s-1.053-0.904-1.518-1.418
				c-0.464-0.514-0.85-1.094-1.156-1.74s-0.459-1.4-0.459-2.262c0-1.443,0.414-2.549,1.242-3.32c0.83-0.771,2.006-1.156,3.531-1.156
				c0.631,0,1.193,0.107,1.691,0.322c0.497,0.217,0.924,0.52,1.28,0.908c0.356,0.391,0.646,0.85,0.87,1.381
				c0.225,0.529,0.369,1.109,0.436,1.74L270.861,271.42z"/>
			<path fill="#0088C2" d="M276.281,284.947v-17.953h8.256v2.686h-5.173v4.625h3.979v2.686h-3.979v5.271h5.521v2.686H276.281z
				 M280.906,266.049h-2.064l1.965-3.58h3.357L280.906,266.049z"/>
			<path fill="#0088C2" d="M290.404,284.947h-3.083v-17.953h4.327c1.723,0,3.024,0.406,3.903,1.219
				c0.878,0.812,1.317,2.172,1.317,4.078c0,0.73-0.062,1.352-0.186,1.865c-0.125,0.514-0.291,0.949-0.498,1.305
				c-0.207,0.357-0.439,0.643-0.695,0.857c-0.258,0.217-0.52,0.383-0.784,0.498l2.611,8.131h-3.134l-2.188-7.434
				c-0.199,0.033-0.443,0.053-0.734,0.061c-0.289,0.01-0.576,0.014-0.857,0.014V284.947z M290.404,275.051h1.094
				c0.414,0,0.768-0.041,1.057-0.123c0.291-0.084,0.527-0.232,0.709-0.449c0.183-0.215,0.314-0.5,0.398-0.857
				c0.082-0.355,0.124-0.799,0.124-1.33c0-1.061-0.174-1.785-0.522-2.176c-0.348-0.389-0.937-0.584-1.766-0.584h-1.094V275.051z"/>
			<path fill="#0088C2" d="M300.177,284.947v-17.953h3.083v17.953H300.177z"/>
			<path fill="#0088C2" d="M306.667,284.947v-17.953h8.255v2.686h-5.172v4.625h3.979v2.686h-3.979v5.271h5.521v2.686H306.667z"/>
		</g>
	</g>
</g>
</svg>
